<?xml version="1.0" encoding="UTF-8"?>
<!-- Generator: Adobe Illustrator 28.1.0, SVG Export Plug-In . SVG Version: 6.00 Build 0)  -->
<svg xmlns="http://www.w3.org/2000/svg" xmlns:xlink="http://www.w3.org/1999/xlink" version="1.1" id="Layer_1" x="0px" y="0px" viewBox="0 0 768.8 425" style="enable-background:new 0 0 768.8 425;" xml:space="preserve">
<style type="text/css">
	.st0{fill:#093D64;}
	.st1{fill:#31F0FF;}
	.st2{fill:none;stroke:#C91212;stroke-width:1.14;stroke-miterlimit:10;}
	.st3{fill:#C91212;}
	.st4{fill:none;stroke:#16B200;stroke-width:1.14;stroke-miterlimit:10;}
	.st5{fill:#16B200;}
	.st6{fill:none;stroke:#093D64;stroke-miterlimit:10;}
	.st7{fill:none;stroke:#093D64;stroke-miterlimit:10;stroke-dasharray:0,0,13.58,13.58;}
	.st8{fill:none;stroke:#093D64;stroke-miterlimit:10;stroke-dasharray:0,0,13.5,13.5;}
</style>
<g>
	<g id="Layer_1_00000052786883283753168500000014874676389145046154_">
		<g>
			<g>
				<g>
					<path d="M314.4,13.7h2.7v16.7h-2.7V13.7z"></path>
					<path d="M326.5,23.6h-3v6.8h-2.7V13.7h5.8c4,0,5.9,2.3,5.9,5C332.4,21,330.8,23.6,326.5,23.6z M326.5,21.4c2.1,0,3.1-1,3.1-2.7       c0-1.7-1-2.7-3.1-2.7h-3v5.4H326.5z"></path>
					<path d="M339.8,30.6c-3.2,0-5.4-1.9-5.5-4.3h2.8c0.1,1.1,1.1,2,2.6,2c1.6,0,2.4-0.7,2.4-1.6c0-2.6-7.7-1.1-7.7-6       c0-2.1,2-3.8,5.1-3.8c3,0,5,1.6,5.1,4.2H342c-0.1-1.2-1-1.9-2.5-1.9c-1.5,0-2.2,0.6-2.2,1.5c0,2.7,7.5,1.2,7.6,6       C344.9,28.9,342.9,30.6,339.8,30.6z"></path>
					<path d="M353.5,30.6c-3.8,0-6.6-2.7-6.6-6.8s2.7-6.8,6.6-6.8c3.8,0,6.4,2.6,6.4,6.5c0,0.5,0,0.9-0.1,1.3h-10.1       c0.2,2.2,1.8,3.5,3.8,3.5c1.7,0,2.6-0.8,3.1-1.8h3C358.8,28.7,356.8,30.6,353.5,30.6z M349.8,22.6h7.3c0-2-1.7-3.3-3.7-3.3       C351.6,19.2,350.1,20.5,349.8,22.6z"></path>
					<path d="M368.2,16.9c3.2,0,5.4,1.6,6.1,4.4h-3c-0.5-1.3-1.5-2.1-3.1-2.1c-2.2,0-3.7,1.6-3.7,4.5c0,2.9,1.5,4.5,3.7,4.5       c1.6,0,2.6-0.7,3.1-2.1h3c-0.7,2.6-2.9,4.4-6.1,4.4c-3.8,0-6.5-2.7-6.5-6.8C361.7,19.6,364.4,16.9,368.2,16.9z"></path>
					<path d="M383.3,13.7h3l5.9,13.1l5.8-13.1h2.9v16.7h-2.7V18.9L393,30.4h-1.9L386,18.9v11.4h-2.7V13.7z"></path>
					<path d="M410.2,30.6c-3.8,0-6.6-2.7-6.6-6.8s3-6.8,6.7-6.8c3.8,0,6.7,2.7,6.7,6.8S414,30.6,410.2,30.6z M410.2,28.2       c2,0,4.1-1.5,4.1-4.5c0-3-1.9-4.4-4-4.4c-2.1,0-3.9,1.4-3.9,4.4C406.3,26.7,408.1,28.2,410.2,28.2z"></path>
					<path d="M425.1,16.9c1.7,0,3.6,0.8,4.6,2.1v-6.4h2.8v17.8h-2.8v-2c-0.8,1.2-2.4,2.2-4.6,2.2c-3.5,0-6.2-2.8-6.2-6.9       C418.8,19.6,421.6,16.9,425.1,16.9z M425.7,19.3c-2,0-4,1.5-4,4.4s2,4.5,4,4.5c2.1,0,4-1.6,4-4.5       C429.7,20.9,427.7,19.3,425.7,19.3z"></path>
					<path d="M441.7,30.6c-3.8,0-6.6-2.7-6.6-6.8s2.7-6.8,6.6-6.8c3.8,0,6.4,2.6,6.4,6.5c0,0.5,0,0.9-0.1,1.3h-10.1       c0.2,2.2,1.8,3.5,3.8,3.5c1.7,0,2.6-0.8,3.1-1.8h3C447,28.7,445,30.6,441.7,30.6z M438,22.6h7.3c0-2-1.7-3.3-3.7-3.3       C439.8,19.2,438.3,20.5,438,22.6z"></path>
					<path d="M455.6,30.6c-3.2,0-5.4-1.9-5.5-4.3h2.8c0.1,1.1,1.1,2,2.6,2c1.6,0,2.4-0.7,2.4-1.6c0-2.6-7.7-1.1-7.7-6       c0-2.1,2-3.8,5.1-3.8c3,0,5,1.6,5.1,4.2h-2.7c-0.1-1.2-1-1.9-2.5-1.9c-1.5,0-2.2,0.6-2.2,1.5c0,2.7,7.5,1.2,7.6,6       C460.7,28.9,458.8,30.6,455.6,30.6z"></path>
				</g>
			</g>
			<g>
				<g>
					<path class="st0" d="M86.4,85.9H14c-2.2,0-4,1.8-4,4.1v52.2l0,0c0,2.2,1.8,4,4,4h28.2v8l-8,4v4h32.1v-4l-8-4v-8h28.2       c2.2,0,4-1.8,4-4.1V90C90.4,87.7,88.6,85.9,86.4,85.9L86.4,85.9z M18,93.1h25V118H18V93.1z M82.3,138.2H18v-8h64.3V138.2       L82.3,138.2z M82.3,118.1H48.6v-5.7h33.7V118.1z M82.3,108.5H48.6v-5.7h33.7V108.5z M82.3,98.9H48.6v-5.7h33.7V98.9z"></path>
					<g>
						<path d="M26.5,63.5c2.8,0,4.9,1.4,5.8,3.8h-1.5c-0.7-1.7-2.2-2.7-4.3-2.7c-2.8,0-4.9,2-4.9,5.3s2.1,5.3,4.9,5.3        c2.1,0,3.6-1,4.3-2.7h1.5c-0.9,2.4-3,3.8-5.8,3.8c-3.5,0-6.2-2.6-6.2-6.4S23.1,63.5,26.5,63.5z"></path>
						<path d="M34.8,62.9h1.3v13.3h-1.3C34.8,76.2,34.8,62.9,34.8,62.9z"></path>
						<path d="M38.7,63.6c0-0.5,0.4-0.9,0.9-0.9s0.9,0.4,0.9,0.9s-0.4,0.9-0.9,0.9S38.7,64.2,38.7,63.6z M39,66.4h1.3v9.8H39V66.4z"></path>
						<path d="M47.3,76.4c-2.8,0-4.8-1.9-4.8-5.1s2-5.1,4.8-5.1s4.7,2.1,4.7,4.6c0,0.4,0,0.7,0,1h-8.2c0.1,2.3,1.7,3.5,3.5,3.5        c1.7,0,2.8-0.9,3.2-2.2h1.3C51.4,75,49.8,76.4,47.3,76.4z M43.8,70.8h6.9c0-2.3-1.6-3.4-3.4-3.4S43.9,68.5,43.8,70.8z"></path>
						<path d="M61.7,70.6c0-2.2-1.2-3.3-3-3.3s-3.1,1.2-3.1,3.6v5.4h-1.3v-9.8h1.3v1.7c0.6-1.2,1.9-1.8,3.3-1.8c2.2,0,4,1.4,4,4.2        v5.8h-1.2V70.6L61.7,70.6z"></path>
						<path d="M66,67.5h-1.4v-1.1H66v-2.5h1.3v2.5H70v1.1h-2.7v6.1c0,1.2,0.4,1.6,1.6,1.6H70v1.1h-1.3c-1.7,0-2.6-0.7-2.6-2.7        L66,67.5L66,67.5z"></path>
						<path d="M77.9,64.5h-1.8v-1.1h3.1v12.9h-1.3C77.9,76.3,77.9,64.5,77.9,64.5z"></path>
					</g>
				</g>
				<g>
					<path class="st0" d="M754.1,85.9h-72.4c-2.2,0-4,1.8-4,4.1v52.2l0,0c0,2.2,1.8,4,4,4h28.2v8l-8,4v4H734v-4l-8-4v-8h28.2       c2.2,0,4-1.8,4-4.1V90C758.1,87.7,756.3,85.9,754.1,85.9L754.1,85.9z M685.7,93.1h25V118h-25V93.1z M750,138.2h-64.3v-8H750       V138.2z M750,118.1h-33.7v-5.7H750V118.1z M750,108.5h-33.7v-5.7H750V108.5z M750,98.9h-33.7v-5.7H750V98.9z"></path>
					<g>
						<path d="M691.7,63.5c2.8,0,4.9,1.4,5.8,3.8H696c-0.7-1.7-2.2-2.7-4.3-2.7c-2.8,0-4.9,2-4.9,5.3s2.1,5.3,4.9,5.3        c2.1,0,3.6-1,4.3-2.7h1.5c-0.9,2.4-3,3.8-5.8,3.8c-3.5,0-6.2-2.6-6.2-6.4S688.2,63.5,691.7,63.5z"></path>
						<path d="M700,62.9h1.3v13.3H700C700,76.2,700,62.9,700,62.9z"></path>
						<path d="M703.9,63.6c0-0.5,0.4-0.9,0.9-0.9s0.9,0.4,0.9,0.9s-0.4,0.9-0.9,0.9S703.9,64.2,703.9,63.6z M704.2,66.4h1.3v9.8        h-1.3V66.4z"></path>
						<path d="M712.5,76.4c-2.8,0-4.8-1.9-4.8-5.1s2-5.1,4.8-5.1s4.7,2.1,4.7,4.6c0,0.4,0,0.7,0,1H709c0.1,2.3,1.7,3.5,3.5,3.5        c1.7,0,2.8-0.9,3.2-2.2h1.3C716.6,75,715,76.4,712.5,76.4L712.5,76.4z M709,70.8h6.9c0-2.3-1.6-3.4-3.4-3.4        S709.1,68.5,709,70.8z"></path>
						<path d="M726.8,70.6c0-2.2-1.2-3.3-3-3.3s-3.1,1.2-3.1,3.6v5.4h-1.3v-9.8h1.3v1.7c0.6-1.2,1.9-1.8,3.3-1.8c2.2,0,4,1.4,4,4.2        v5.8h-1.2V70.6L726.8,70.6z"></path>
						<path d="M731.2,67.5h-1.4v-1.1h1.4v-2.5h1.3v2.5h2.7v1.1h-2.7v6.1c0,1.2,0.4,1.6,1.5,1.6h1.2v1.1h-1.3c-1.7,0-2.6-0.7-2.6-2.7        L731.2,67.5L731.2,67.5z"></path>
						<path d="M741.7,75.2c3.7-2.8,6.9-5.6,6.9-8.3c0-1.5-0.7-2.7-2.7-2.7s-2.8,1.3-3,3.1h-1.2c0.1-2.7,1.8-4.2,4.2-4.2        c2.2,0,3.9,1.3,3.9,3.8c0,3.3-3.7,6.3-6.3,8.2h6.7v1.1h-8.6L741.7,75.2L741.7,75.2z"></path>
					</g>
				</g>
				<path class="st1" d="M434.8,104.1c0-0.4,0.1-0.8,0.1-1.2c0-21.4-17.1-38.7-38.1-38.7c-15.2,0-28.2,9-34.3,22.1      c-2.7-1.3-5.7-2.1-8.8-2.1c-9.7,0-17.8,7.2-19.4,16.6c-11.7,4-20,15.2-20,28.3c0,16.5,13.2,29.9,29.5,30h91.1      c14.9-0.1,26.9-12.4,26.9-27.5C461.8,116.4,449.7,104.1,434.8,104.1z"></path>
				<g>
					<path d="M355.1,117.6h1.3v12.6h-1.3V117.6z"></path>
					<path d="M366.6,124.5c0-2.2-1.2-3.3-3-3.3s-3.1,1.2-3.1,3.6v5.4h-1.3v-9.8h1.3v1.7c0.6-1.2,1.9-1.8,3.4-1.8c2.2,0,4,1.4,4,4.2       v5.8h-1.2L366.6,124.5L366.6,124.5z"></path>
					<path d="M371,121.4h-1.4v-1.1h1.4v-2.5h1.3v2.5h2.7v1.1h-2.7v6.1c0,1.2,0.4,1.6,1.5,1.6h1.1v1.1h-1.4c-1.7,0-2.6-0.7-2.6-2.7       L371,121.4L371,121.4z"></path>
					<path d="M381.3,130.3c-2.8,0-4.8-1.9-4.8-5.1s2-5.1,4.8-5.1s4.6,2.1,4.6,4.6c0,0.4,0,0.7,0,1h-8.2c0.1,2.3,1.7,3.5,3.5,3.5       c1.7,0,2.8-0.9,3.2-2.2h1.3C385.4,128.9,383.8,130.3,381.3,130.3L381.3,130.3z M377.8,124.7h6.9c0-2.3-1.6-3.4-3.4-3.4       S377.9,122.4,377.8,124.7z"></path>
					<path d="M389.5,130.1h-1.3v-9.8h1.3v1.8c0.5-1.2,1.7-1.9,3.4-1.9v1.3h-0.3c-1.6,0-3,0.7-3,3.2L389.5,130.1L389.5,130.1z"></path>
					<path d="M402.1,124.5c0-2.2-1.2-3.3-3-3.3s-3.1,1.2-3.1,3.6v5.4h-1.3v-9.8h1.3v1.7c0.6-1.2,1.9-1.8,3.4-1.8c2.2,0,4,1.4,4,4.2       v5.8h-1.2L402.1,124.5L402.1,124.5z"></path>
					<path d="M410.4,130.3c-2.8,0-4.8-1.9-4.8-5.1s2-5.1,4.8-5.1s4.6,2.1,4.6,4.6c0,0.4,0,0.7,0,1h-8.2c0.1,2.3,1.7,3.5,3.5,3.5       c1.7,0,2.8-0.9,3.2-2.2h1.3C414.5,128.9,412.9,130.3,410.4,130.3L410.4,130.3z M406.9,124.7h6.9c0-2.3-1.6-3.4-3.4-3.4       S407,122.4,406.9,124.7z"></path>
					<path d="M417.7,121.4h-1.4v-1.1h1.4v-2.5h1.3v2.5h2.7v1.1H419v6.1c0,1.2,0.4,1.6,1.5,1.6h1.1v1.1h-1.4c-1.7,0-2.6-0.7-2.6-2.7       L417.7,121.4L417.7,121.4z"></path>
				</g>
				<g>
					<path d="M318.5,173.5h8.3v1h-3.5V186H322v-11.5h-3.5V173.5z"></path>
					<path d="M330,186h-1.3v-9.8h1.3v1.8c0.5-1.2,1.7-1.9,3.4-1.9v1.3H333c-1.6,0-3,0.7-3,3.2V186L330,186z"></path>
					<path d="M339.4,176.1c2,0,3.3,1.1,3.9,2.3v-2.2h1.3v9.8h-1.3v-2.2c-0.6,1.3-1.9,2.3-3.9,2.3c-2.7,0-4.7-2-4.7-5.1       S336.7,176.1,339.4,176.1L339.4,176.1z M339.6,177.2c-2.1,0-3.7,1.4-3.7,3.9s1.6,4,3.7,4s3.6-1.5,3.6-4       S341.6,177.2,339.6,177.2L339.6,177.2z"></path>
					<path d="M354.8,180.4c0-2.2-1.2-3.3-3-3.3s-3.1,1.1-3.1,3.6v5.4h-1.3v-9.8h1.3v1.7c0.6-1.2,1.9-1.9,3.4-1.9c2.2,0,4,1.4,4,4.2       v5.8h-1.2L354.8,180.4L354.8,180.4z"></path>
					<path d="M362.2,186.2c-2.2,0-3.8-1.1-4-2.9h1.3c0.1,1.1,1,1.9,2.6,1.9c1.4,0,2.2-0.8,2.2-1.7c0-2.4-5.9-1-5.9-4.7       c0-1.5,1.4-2.7,3.5-2.7s3.5,1.1,3.6,3h-1.3c-0.1-1.1-0.9-1.9-2.4-1.9c-1.3,0-2.1,0.7-2.1,1.6c0,2.7,5.8,1.2,5.9,4.7       C365.6,185,364.2,186.2,362.2,186.2L362.2,186.2z"></path>
					<path d="M373.1,176.1c2.7,0,4.7,2,4.7,5s-2,5.1-4.7,5.1c-2,0-3.3-1.1-3.9-2.3v6.8H368v-14.5h1.2v2.2       C369.8,177.1,371.1,176.1,373.1,176.1L373.1,176.1z M372.9,177.2c-2,0-3.7,1.5-3.7,4s1.7,4,3.7,4s3.7-1.5,3.7-4       S374.9,177.2,372.9,177.2L372.9,177.2z"></path>
					<path d="M384.4,186.2c-2.8,0-4.9-1.9-4.9-5.1s2.2-5.1,4.9-5.1s4.9,1.9,4.9,5.1S387.2,186.2,384.4,186.2L384.4,186.2z        M384.4,185.1c1.9,0,3.7-1.3,3.7-4s-1.8-4-3.6-4s-3.6,1.3-3.6,4S382.5,185.1,384.4,185.1z"></path>
					<path d="M392.9,186h-1.3v-9.8h1.3v1.8c0.5-1.2,1.7-1.9,3.4-1.9v1.3H396c-1.6,0-3,0.7-3,3.2L392.9,186L392.9,186z"></path>
					<path d="M398.5,177.3h-1.4v-1.1h1.4v-2.5h1.3v2.5h2.7v1.1h-2.7v6.1c0,1.2,0.4,1.6,1.5,1.6h1.1v1.1H401c-1.7,0-2.6-0.7-2.6-2.7       L398.5,177.3L398.5,177.3z"></path>
					<path d="M409.5,173.6h1.3l4.8,10.8l4.8-10.8h1.4V186h-1.3v-9.9l-4.4,9.9h-0.9l-4.4-9.9v9.9h-1.3V173.6L409.5,173.6z"></path>
					<path d="M429,186.2c-2.8,0-4.9-1.9-4.9-5.1s2.2-5.1,4.9-5.1s4.9,1.9,4.9,5.1S431.8,186.2,429,186.2L429,186.2z M429,185.1       c1.9,0,3.7-1.3,3.7-4s-1.8-4-3.6-4s-3.6,1.3-3.6,4S427.1,185.1,429,185.1z"></path>
					<path d="M440.4,176.1c1.8,0,3.2,1,3.9,2.3v-5.6h1.3V186h-1.3v-2.2c-0.6,1.3-1.9,2.3-3.9,2.3c-2.7,0-4.7-2-4.7-5.1       S437.6,176.1,440.4,176.1L440.4,176.1z M440.6,177.2c-2.1,0-3.7,1.4-3.7,3.9s1.6,4,3.7,4s3.6-1.5,3.6-4       S442.6,177.2,440.6,177.2L440.6,177.2z"></path>
					<path d="M452.6,186.2c-2.8,0-4.8-1.9-4.8-5.1s2-5.1,4.8-5.1s4.6,2.1,4.6,4.6c0,0.4,0,0.6,0,1H449c0.1,2.3,1.7,3.5,3.5,3.5       c1.7,0,2.8-0.9,3.2-2.2h1.3C456.7,184.8,455.1,186.2,452.6,186.2L452.6,186.2z M449.1,180.6h6.9c0-2.3-1.6-3.4-3.4-3.4       S449.2,178.3,449.1,180.6z"></path>
				</g>
				<g>
					<line class="st2" x1="651.5" y1="112.4" x2="454.1" y2="112.4"></line>
					<path class="st3" d="M658.4,112.4c-3.2-1.2-7.2-3.2-9.7-5.4l2,5.4l-2,5.4C651.1,115.6,655.1,113.6,658.4,112.4z"></path>
				</g>
				<g>
					<line class="st2" x1="319.3" y1="112.4" x2="114.2" y2="112.4"></line>
					<path class="st3" d="M107.4,112.4c3.2-1.2,7.2-3.2,9.7-5.4l-2,5.4l2,5.4C114.6,115.6,110.6,113.6,107.4,112.4z"></path>
				</g>
			</g>
			<path class="st1" d="M434.8,307.6c0-0.4,0.1-0.8,0.1-1.2c0-21.4-17.1-38.7-38.1-38.7c-15.2,0-28.2,9-34.3,22.1     c-2.7-1.4-5.7-2.1-8.8-2.1c-9.7,0-17.8,7.2-19.4,16.6c-11.7,4-20,15.2-20,28.3c0,16.5,13.2,29.9,29.5,30h91.1     c14.9-0.1,26.9-12.4,26.9-27.5C461.8,319.9,449.7,307.7,434.8,307.6z"></path>
			<g>
				<path d="M355.1,321.1h1.3v12.6h-1.3V321.1z"></path>
				<path d="M366.6,328c0-2.2-1.2-3.3-3-3.3s-3.1,1.1-3.1,3.5v5.4h-1.3v-9.8h1.3v1.7c0.6-1.2,1.9-1.9,3.4-1.9c2.2,0,4,1.4,4,4.2v5.8      h-1.2L366.6,328L366.6,328z"></path>
				<path d="M371,324.9h-1.4v-1.1h1.4v-2.5h1.3v2.5h2.7v1.1h-2.7v6.1c0,1.2,0.4,1.6,1.5,1.6h1.1v1.1h-1.4c-1.7,0-2.6-0.7-2.6-2.7      L371,324.9L371,324.9z"></path>
				<path d="M381.3,333.8c-2.8,0-4.8-1.9-4.8-5.1s2-5.1,4.8-5.1s4.6,2,4.6,4.6c0,0.4,0,0.6,0,1h-8.2c0.1,2.3,1.7,3.5,3.5,3.5      c1.7,0,2.8-0.9,3.2-2.2h1.3C385.4,332.4,383.8,333.8,381.3,333.8L381.3,333.8z M377.8,328.2h6.9c0-2.3-1.6-3.4-3.4-3.4      S377.9,325.9,377.8,328.2z"></path>
				<path d="M389.5,333.7h-1.3v-9.8h1.3v1.8c0.5-1.2,1.7-1.9,3.4-1.9v1.3h-0.3c-1.6,0-3,0.7-3,3.2L389.5,333.7L389.5,333.7z"></path>
				<path d="M402.1,328c0-2.2-1.2-3.3-3-3.3s-3.1,1.1-3.1,3.5v5.4h-1.3v-9.8h1.3v1.7c0.6-1.2,1.9-1.9,3.4-1.9c2.2,0,4,1.4,4,4.2v5.8      h-1.2L402.1,328L402.1,328z"></path>
				<path d="M410.4,333.8c-2.8,0-4.8-1.9-4.8-5.1s2-5.1,4.8-5.1s4.6,2,4.6,4.6c0,0.4,0,0.6,0,1h-8.2c0.1,2.3,1.7,3.5,3.5,3.5      c1.7,0,2.8-0.9,3.2-2.2h1.3C414.5,332.4,412.9,333.8,410.4,333.8L410.4,333.8z M406.9,328.2h6.9c0-2.3-1.6-3.4-3.4-3.4      S407,325.9,406.9,328.2z"></path>
				<path d="M417.7,324.9h-1.4v-1.1h1.4v-2.5h1.3v2.5h2.7v1.1H419v6.1c0,1.2,0.4,1.6,1.5,1.6h1.1v1.1h-1.4c-1.7,0-2.6-0.7-2.6-2.7      L417.7,324.9L417.7,324.9z"></path>
			</g>
			<g>
				<path d="M331.6,377h8.3v1h-3.5v11.5h-1.3V378h-3.5V377z"></path>
				<path d="M350.4,389.6h-1.3v-1.7c-0.6,1.2-1.9,1.9-3.4,1.9c-2.2,0-4-1.4-4-4.2v-5.7h1.2v5.6c0,2.2,1.2,3.3,3,3.3s3.1-1.1,3.1-3.5      v-5.4h1.3L350.4,389.6L350.4,389.6z"></path>
				<path d="M360.7,383.9c0-2.2-1.2-3.3-3-3.3s-3.1,1.1-3.1,3.5v5.4h-1.3v-9.8h1.3v1.7c0.6-1.2,1.9-1.9,3.4-1.9c2.2,0,4,1.4,4,4.2      v5.8h-1.2L360.7,383.9L360.7,383.9z"></path>
				<path d="M372,383.9c0-2.2-1.2-3.3-3-3.3s-3.1,1.1-3.1,3.5v5.4h-1.3v-9.8h1.3v1.7c0.6-1.2,1.9-1.9,3.4-1.9c2.2,0,4,1.4,4,4.2v5.8      h-1.2L372,383.9L372,383.9z"></path>
				<path d="M380.3,389.7c-2.8,0-4.8-1.9-4.8-5.1s2-5.1,4.8-5.1s4.6,2,4.6,4.6c0,0.4,0,0.6,0,1h-8.2c0.1,2.3,1.7,3.5,3.5,3.5      c1.7,0,2.8-0.9,3.2-2.2h1.3C384.4,388.3,382.8,389.7,380.3,389.7L380.3,389.7z M376.8,384.1h6.9c0-2.3-1.6-3.4-3.4-3.4      S376.9,381.8,376.8,384.1z"></path>
				<path d="M387.3,376.2h1.3v13.3h-1.3V376.2z"></path>
				<path d="M396.3,377.1h1.3l4.8,10.8l4.8-10.8h1.4v12.4h-1.3v-9.9l-4.4,9.9H402l-4.4-9.9v9.9h-1.3L396.3,377.1L396.3,377.1z"></path>
				<path d="M415.8,389.7c-2.8,0-4.9-1.9-4.9-5.1s2.2-5.1,4.9-5.1s4.9,1.9,4.9,5.1S418.6,389.7,415.8,389.7L415.8,389.7z       M415.8,388.6c1.9,0,3.7-1.3,3.7-4s-1.8-4-3.6-4s-3.6,1.3-3.6,4S413.9,388.6,415.8,388.6z"></path>
				<path d="M427.2,379.6c1.8,0,3.2,1,3.9,2.3v-5.6h1.3v13.3H431v-2.2c-0.6,1.3-1.9,2.3-3.9,2.3c-2.7,0-4.7-2-4.7-5.1      S424.5,379.6,427.2,379.6L427.2,379.6z M427.4,380.7c-2.1,0-3.7,1.4-3.7,3.9s1.6,4,3.7,4s3.6-1.5,3.6-4S429.4,380.7,427.4,380.7      L427.4,380.7z"></path>
				<path d="M439.4,389.7c-2.8,0-4.8-1.9-4.8-5.1s2-5.1,4.8-5.1s4.6,2,4.6,4.6c0,0.4,0,0.6,0,1h-8.2c0.1,2.3,1.7,3.5,3.5,3.5      c1.7,0,2.8-0.9,3.2-2.2h1.3C443.5,388.3,441.9,389.7,439.4,389.7L439.4,389.7z M435.9,384.1h6.9c0-2.3-1.6-3.4-3.4-3.4      S436,381.8,435.9,384.1z"></path>
			</g>
			<g>
				<path d="M204.6,345.7h-1.5c-0.7-1.6-2.2-2.7-4.2-2.7c-2.8,0-4.9,2-4.9,5.3s2.1,5.3,4.9,5.3c2.6,0,4.6-1.8,4.8-4.6h-5.3v-1h6.6      v0.9c-0.2,3.3-2.7,5.9-6.1,5.9s-6.2-2.6-6.2-6.4s2.7-6.4,6.2-6.4C201.6,341.9,203.7,343.3,204.6,345.7L204.6,345.7z"></path>
				<path d="M211.4,344.7c2,0,3.3,1.1,3.9,2.3v-2.2h1.3v9.8h-1.3v-2.2c-0.6,1.3-1.9,2.3-3.9,2.3c-2.7,0-4.7-2-4.7-5.1      S208.7,344.7,211.4,344.7L211.4,344.7z M211.6,345.8c-2.1,0-3.7,1.4-3.7,3.9s1.6,4,3.7,4s3.6-1.5,3.6-4S213.6,345.8,211.6,345.8      L211.6,345.8z"></path>
				<path d="M219.8,345.9h-1.4v-1.1h1.4v-2.5h1.3v2.5h2.7v1.1h-2.7v6.1c0,1.2,0.4,1.6,1.6,1.6h1.1v1.1h-1.4c-1.7,0-2.6-0.7-2.6-2.7      L219.8,345.9L219.8,345.9z"></path>
				<path d="M230.1,354.8c-2.8,0-4.8-1.9-4.8-5.1s2-5.1,4.8-5.1s4.6,2,4.6,4.6c0,0.4,0,0.6,0,1h-8.2c0.1,2.3,1.7,3.5,3.6,3.5      c1.7,0,2.8-0.9,3.2-2.2h1.3C234.1,353.4,232.6,354.8,230.1,354.8z M226.6,349.2h6.9c0.1-2.3-1.6-3.4-3.4-3.4      S226.7,346.9,226.6,349.2z"></path>
				<path d="M235.9,344.8h1.3l2.4,8.5l2.8-8.5h1.3l2.7,8.6l2.4-8.6h1.2l-3.1,9.8h-1.3l-2.7-8.2l-2.7,8.2h-1.3L235.9,344.8      L235.9,344.8z"></path>
				<path d="M255.8,344.7c2,0,3.3,1.1,3.9,2.3v-2.2h1.3v9.8h-1.3v-2.2c-0.6,1.3-1.9,2.3-3.9,2.3c-2.7,0-4.7-2-4.7-5.1      S253.1,344.7,255.8,344.7L255.8,344.7z M256.1,345.8c-2.1,0-3.7,1.4-3.7,3.9s1.6,4,3.7,4c2.1,0,3.6-1.5,3.6-4      S258.1,345.8,256.1,345.8L256.1,345.8z"></path>
				<path d="M270.7,344.8h1.3l-5.8,14.5h-1.3l1.9-4.7l-4-9.8h1.4l3.4,8.4L270.7,344.8L270.7,344.8z"></path>
				<path d="M279.5,342.9h-1.8v-1.1h3.1v12.9h-1.3L279.5,342.9L279.5,342.9z"></path>
			</g>
			<g>
				<path d="M499.4,345.7h-1.5c-0.7-1.6-2.2-2.7-4.2-2.7c-2.8,0-4.9,2-4.9,5.3s2.1,5.3,4.9,5.3c2.6,0,4.6-1.8,4.8-4.6h-5.3v-1h6.6      v0.9c-0.2,3.3-2.7,5.9-6.1,5.9s-6.2-2.6-6.2-6.4s2.7-6.4,6.2-6.4C496.4,341.9,498.5,343.3,499.4,345.7L499.4,345.7z"></path>
				<path d="M506.2,344.7c2,0,3.3,1.1,3.9,2.3v-2.2h1.3v9.8h-1.3v-2.2c-0.6,1.3-1.9,2.3-3.9,2.3c-2.7,0-4.7-2-4.7-5.1      S503.6,344.7,506.2,344.7L506.2,344.7z M506.5,345.8c-2.1,0-3.7,1.4-3.7,3.9s1.6,4,3.7,4s3.6-1.5,3.6-4S508.5,345.8,506.5,345.8      L506.5,345.8z"></path>
				<path d="M514.6,345.9h-1.4v-1.1h1.4v-2.5h1.3v2.5h2.7v1.1h-2.7v6.1c0,1.2,0.4,1.6,1.5,1.6h1.2v1.1h-1.3c-1.7,0-2.6-0.7-2.6-2.7      L514.6,345.9L514.6,345.9z"></path>
				<path d="M524.9,354.8c-2.8,0-4.8-1.9-4.8-5.1s2-5.1,4.8-5.1s4.7,2,4.7,4.6c0,0.4,0,0.6,0,1h-8.2c0.1,2.3,1.7,3.5,3.5,3.5      c1.7,0,2.8-0.9,3.2-2.2h1.3C529,353.4,527.4,354.8,524.9,354.8L524.9,354.8z M521.4,349.2h6.9c0-2.3-1.6-3.4-3.4-3.4      S521.5,346.9,521.4,349.2z"></path>
				<path d="M530.7,344.8h1.3l2.5,8.5l2.8-8.5h1.3l2.7,8.6l2.4-8.6h1.2l-3.1,9.8h-1.3l-2.7-8.2l-2.7,8.2h-1.3L530.7,344.8      L530.7,344.8z"></path>
				<path d="M550.7,344.7c2,0,3.3,1.1,3.9,2.3v-2.2h1.3v9.8h-1.3v-2.2c-0.6,1.3-1.9,2.3-3.9,2.3c-2.7,0-4.7-2-4.7-5.1      S548,344.7,550.7,344.7L550.7,344.7z M550.9,345.8c-2.1,0-3.7,1.4-3.7,3.9s1.6,4,3.7,4s3.7-1.5,3.7-4S552.9,345.8,550.9,345.8      L550.9,345.8z"></path>
				<path d="M565.5,344.8h1.3l-5.8,14.5h-1.3l1.9-4.7l-4-9.8h1.4l3.3,8.4L565.5,344.8L565.5,344.8z"></path>
				<path d="M572.9,353.7c3.7-2.8,6.9-5.6,6.9-8.3c0-1.5-0.7-2.7-2.7-2.7s-2.8,1.3-3,3.1H573c0.1-2.7,1.8-4.2,4.2-4.2      c2.2,0,3.9,1.3,3.9,3.8c0,3.3-3.7,6.3-6.3,8.2h6.7v1.1h-8.6L572.9,353.7L572.9,353.7z"></path>
			</g>
			<g>
				<line class="st4" x1="507.9" y1="315.9" x2="454.1" y2="315.9"></line>
				<path class="st5" d="M514.8,315.9c-3.2-1.2-7.2-3.2-9.7-5.4l2,5.4l-2,5.4C507.5,319.1,511.5,317.1,514.8,315.9z"></path>
			</g>
			<g>
				<line class="st4" x1="319.3" y1="315.9" x2="266.8" y2="315.9"></line>
				<path class="st5" d="M260,315.9c3.2-1.2,7.2-3.2,9.7-5.4l-2,5.4l2,5.4C267.2,319.1,263.2,317.1,260,315.9z"></path>
			</g>
			<g>
				<path class="st0" d="M86.4,227.5H14c-2.2,0-4,1.8-4,4.1v52.2l0,0c0,2.2,1.8,4,4,4h28.2v8l-8,4v4h32.1v-4l-8-4v-8h28.2      c2.2,0,4-1.8,4-4v-52.2C90.4,229.3,88.6,227.4,86.4,227.5L86.4,227.5z M18,234.7h25v25H18V234.7L18,234.7z M82.3,279.7H18v-8      h64.3V279.7L82.3,279.7z M82.3,259.6H48.6v-5.7h33.7V259.6z M82.3,250H48.6v-5.7h33.7V250z M82.3,240.4H48.6v-5.7h33.7V240.4z"></path>
				<path class="st0" d="M754.1,227.5h-72.4c-2.2,0-4,1.8-4,4.1v52.2l0,0c0,2.2,1.8,4,4,4h28.2v8l-8,4v4H734v-4l-8-4v-8h28.2      c2.2,0,4-1.8,4-4v-52.2C758.1,229.3,756.3,227.4,754.1,227.5L754.1,227.5z M685.7,234.7h25v25h-25V234.7L685.7,234.7z       M750,279.7h-64.3v-8H750V279.7z M750,259.6h-33.7v-5.7H750V259.6z M750,250h-33.7v-5.7H750V250z M750,240.4h-33.7v-5.7H750      V240.4z"></path>
				<path class="st0" d="M86.4,337.5H14c-2.2,0-4,1.8-4,4v52.2l0,0c0,2.2,1.8,4,4,4h28.2v8l-8,4v4h32.1v-4l-8-4v-8h28.2      c2.2,0,4-1.8,4-4v-52.2C90.4,339.3,88.6,337.4,86.4,337.5L86.4,337.5z M18,344.7h25v25H18V344.7z M82.3,389.7H18v-8h64.3V389.7      L82.3,389.7z M82.3,369.6H48.6v-5.7h33.7V369.6z M82.3,360H48.6v-5.7h33.7V360z M82.3,350.4H48.6v-5.7h33.7V350.4z"></path>
				<path class="st0" d="M754.1,337.5h-72.4c-2.2,0-4,1.8-4,4v52.2l0,0c0,2.2,1.8,4,4,4h28.2v8l-8,4v4H734v-4l-8-4v-8h28.2      c2.2,0,4-1.8,4-4v-52.2C758.1,339.3,756.3,337.4,754.1,337.5L754.1,337.5z M685.7,344.7h25v25h-25V344.7z M750,389.7h-64.3v-8      H750V389.7z M750,369.6h-33.7v-5.7H750V369.6z M750,360h-33.7v-5.7H750V360z M750,350.4h-33.7v-5.7H750V350.4z"></path>
			</g>
			<g id="Layer_2_00000122684510189340707760000004250030821956649641_">
				<path class="st0" d="M518,299.7h28.6v6.4h-6.4v6.4H518v6.4h22.3v6.4h19.1v-6.4h22.3v-6.4h-22.3v-6.4H553v-6.4h28.6v-25.5H518      V299.7L518,299.7z M553,318.8h-6.4v-6.4h6.4V318.8z M537.1,283.8h6.4v6.4h-6.4V283.8z M527.6,283.8h6.4v6.4h-6.4V283.8z"></path>
			</g>
			<g id="Layer_2-2">
				<path class="st0" d="M191.2,299.7h28.6v6.4h-6.4v6.4h-22.3v6.4h22.3v6.4h19.1v-6.4h22.3v-6.4h-22.3v-6.4h-6.4v-6.4h28.6v-25.5      h-63.6L191.2,299.7L191.2,299.7z M226.2,318.8h-6.4v-6.4h6.4V318.8z M210.3,283.8h6.4v6.4h-6.4V283.8z M200.8,283.8h6.4v6.4      h-6.4V283.8z"></path>
			</g>
			<g>
				<line class="st6" x1="90.4" y1="275.7" x2="95.9" y2="277.9"></line>
				<line class="st7" x1="108.6" y1="282.9" x2="178" y2="310.4"></line>
				<polyline class="st6" points="184.3,312.9 189.9,315.1 184.3,317.3     "></polyline>
				<line class="st8" x1="171.7" y1="322.1" x2="102.3" y2="348.4"></line>
				<line class="st6" x1="96" y1="350.8" x2="90.4" y2="353"></line>
			</g>
			<g>
				<line class="st6" x1="681.2" y1="275.7" x2="675.6" y2="277.9"></line>
				<line class="st7" x1="663" y1="282.9" x2="593.5" y2="310.4"></line>
				<polyline class="st6" points="587.2,312.9 581.6,315.1 587.2,317.3     "></polyline>
				<line class="st8" x1="599.9" y1="322.1" x2="669.3" y2="348.4"></line>
				<line class="st6" x1="675.6" y1="350.8" x2="681.2" y2="353"></line>
			</g>
		</g>
	</g>
</g>
</svg>
